HIERARCHY
ROOT Root
{
  OFFSET 0.0 0.0 0.0
  CHANNELS 6 Xposition Yposition Zposition Zrotation Yrotation Xrotation
  JOINT Hips
  {
    OFFSET 0.0 100.0 0.0
    CHANNELS 6 Xposition Yposition Zposition Zrotation Yrotation Xrotation
    JOINT Spine1
    {
      OFFSET 5.003913 -0.037094 -0.013727
      CHANNELS 3 Zrotation Yrotation Xrotation
      JOINT Spine2
      {
        OFFSET 7.125363 -1e-06 0.0
        CHANNELS 3 Zrotation Yrotation Xrotation
        JOINT Chest
        {
          OFFSET 7.594027 1e-06 0.0
          CHANNELS 3 Zrotation Yrotation Xrotation
          JOINT Neck1
          {
            OFFSET 26.313086 -0.460272 -0.181672
            CHANNELS 3 Zrotation Yrotation Xrotation
            JOINT Neck2
            {
              OFFSET 8.045911 0.0 0.0
              CHANNELS 3 Zrotation Yrotation Xrotation
              JOINT Head
              {
                OFFSET 6.432774 0.0 0.0
                CHANNELS 3 Zrotation Yrotation Xrotation
                JOINT HeadEnd
                {
                  OFFSET 16.169773 0.06451 0.00362
                  CHANNELS 3 Zrotation Yrotation Xrotation
                }
                JOINT Jaw
                {
                  OFFSET 0.108741 3.12938 0.002639
                  CHANNELS 3 Zrotation Yrotation Xrotation
                }
                JOINT LeftEye
                {
                  OFFSET 4.45173 8.166359 3.206392
                  CHANNELS 3 Zrotation Yrotation Xrotation
                }
                JOINT RightEye
                {
                  OFFSET 4.436895 8.135758 -3.222429
                  CHANNELS 3 Zrotation Yrotation Xrotation
                }
              }
            }
          }
          JOINT LeftShoulder
          {
            OFFSET 23.218927 5.195579 1.621656
            CHANNELS 3 Zrotation Yrotation Xrotation
            JOINT LeftArm
            {
              OFFSET 15.902118 2e-06 -2e-06
              CHANNELS 3 Zrotation Yrotation Xrotation
              JOINT LeftForeArm
              {
                OFFSET 28.739307 0.0 -1e-06
                CHANNELS 3 Zrotation Yrotation Xrotation
                JOINT LeftHand
                {
                  OFFSET 27.093981 -4e-06 0.0
                  CHANNELS 3 Zrotation Yrotation Xrotation
                  JOINT LeftHandThumb1
                  {
                    OFFSET 2.276781 3.380274 0.83384
                    CHANNELS 3 Zrotation Yrotation Xrotation
                    JOINT LeftHandThumb2
                    {
                      OFFSET 4.705309 -1e-06 -1e-06
                      CHANNELS 3 Zrotation Yrotation Xrotation
                      JOINT LeftHandThumb3
                      {
                        OFFSET 2.798515 0.0 3e-06
                        CHANNELS 3 Zrotation Yrotation Xrotation
                        JOINT LeftHandThumbEnd
                        {
                          OFFSET 3.180793 4e-06 -4e-06
                          CHANNELS 3 Zrotation Yrotation Xrotation
                        }
                      }
                    }
                  }
                  JOINT LeftHandIndex1
                  {
                    OFFSET 3.247786 2.352677 0.137192
                    CHANNELS 3 Zrotation Yrotation Xrotation
                    JOINT LeftHandIndex2
                    {
                      OFFSET 6.367095 1e-06 0.0
                      CHANNELS 3 Zrotation Yrotation Xrotation
                      JOINT LeftHandIndex3
                      {
                        OFFSET 3.662364 0.0 0.0
                        CHANNELS 3 Zrotation Yrotation Xrotation
                        JOINT LeftHandIndex4
                        {
                          OFFSET 2.329242 4e-06 -4e-06
                          CHANNELS 3 Zrotation Yrotation Xrotation
                          JOINT LeftHandIndexEnd
                          {
                            OFFSET 2.767823 1e-06 0.0
                            CHANNELS 3 Zrotation Yrotation Xrotation
                          }
                        }
                      }
                    }
                  }
                  JOINT LeftHandMiddle1
                  {
                    OFFSET 3.163612 0.945023 -0.406112
                    CHANNELS 3 Zrotation Yrotation Xrotation
                    JOINT LeftHandMiddle2
                    {
                      OFFSET 6.276789 3e-06 0.0
                      CHANNELS 3 Zrotation Yrotation Xrotation
                      JOINT LeftHandMiddle3
                      {
                        OFFSET 4.35652 -1e-06 4e-06
                        CHANNELS 3 Zrotation Yrotation Xrotation
                        JOINT LeftHandMiddle4
                        {
                          OFFSET 2.996877 0.0 8e-06
                          CHANNELS 3 Zrotation Yrotation Xrotation
                          JOINT LeftHandMiddleEnd
                          {
                            OFFSET 2.323256 3e-06 -4e-06
                            CHANNELS 3 Zrotation Yrotation Xrotation
                          }
                        }
                      }
                    }
                  }
                  JOINT LeftHandRing1
                  {
                    OFFSET 2.882606 -0.309162 0.107445
                    CHANNELS 3 Zrotation Yrotation Xrotation
                    JOINT LeftHandRing2
                    {
                      OFFSET 6.033198 0.0 4e-06
                      CHANNELS 3 Zrotation Yrotation Xrotation
                      JOINT LeftHandRing3
                      {
                        OFFSET 4.350578 3e-06 0.0
                        CHANNELS 3 Zrotation Yrotation Xrotation
                        JOINT LeftHandRing4
                        {
                          OFFSET 2.651321 2e-06 -7e-06
                          CHANNELS 3 Zrotation Yrotation Xrotation
                          JOINT LeftHandRingEnd
                          {
                            OFFSET 1.937663 1e-06 -4e-06
                            CHANNELS 3 Zrotation Yrotation Xrotation
                          }
                        }
                      }
                    }
                  }
                  JOINT LeftHandPinky1
                  {
                    OFFSET 2.865315 -1.525436 0.575687
                    CHANNELS 3 Zrotation Yrotation Xrotation
                    JOINT LeftHandPinky2
                    {
                      OFFSET 5.54936 1e-06 -8e-06
                      CHANNELS 3 Zrotation Yrotation Xrotation
                      JOINT LeftHandPinky3
                      {
                        OFFSET 3.070974 0.0 -4e-06
                        CHANNELS 3 Zrotation Yrotation Xrotation
                        JOINT LeftHandPinky4
                        {
                          OFFSET 1.549672 1e-06 0.0
                          CHANNELS 3 Zrotation Yrotation Xrotation
                          JOINT LeftHandPinkyEnd
                          {
                            OFFSET 1.952123 0.0 0.0
                            CHANNELS 3 Zrotation Yrotation Xrotation
                          }
                        }
                      }
                    }
                  }
                }
              }
            }
          }
          JOINT RightShoulder
          {
            OFFSET 23.161716 5.296122 -1.380114
            CHANNELS 3 Zrotation Yrotation Xrotation
            JOINT RightArm
            {
              OFFSET -16.027195 -2e-06 1.1e-05
              CHANNELS 3 Zrotation Yrotation Xrotation
              JOINT RightForeArm
              {
                OFFSET -28.736639 4e-06 2e-06
                CHANNELS 3 Zrotation Yrotation Xrotation
                JOINT RightHand
                {
                  OFFSET -27.133619 6e-06 0.0
                  CHANNELS 3 Zrotation Yrotation Xrotation
                  JOINT RightHandThumb1
                  {
                    OFFSET -2.274328 -3.351035 -0.83067
                    CHANNELS 3 Zrotation Yrotation Xrotation
                    JOINT RightHandThumb2
                    {
                      OFFSET -4.703594 -3e-06 2e-06
                      CHANNELS 3 Zrotation Yrotation Xrotation
                      JOINT RightHandThumb3
                      {
                        OFFSET -2.794935 -4e-06 -3e-06
                        CHANNELS 3 Zrotation Yrotation Xrotation
                        JOINT RightHandThumbEnd
                        {
                          OFFSET -3.183852 4e-06 1e-06
                          CHANNELS 3 Zrotation Yrotation Xrotation
                        }
                      }
                    }
                  }
                  JOINT RightHandIndex1
                  {
                    OFFSET -3.253496 -2.33755 -0.127667
                    CHANNELS 3 Zrotation Yrotation Xrotation
                    JOINT RightHandIndex2
                    {
                      OFFSET -6.344434 0.0 0.0
                      CHANNELS 3 Zrotation Yrotation Xrotation
                      JOINT RightHandIndex3
                      {
                        OFFSET -3.654871 0.0 -8e-06
                        CHANNELS 3 Zrotation Yrotation Xrotation
                        JOINT RightHandIndex4
                        {
                          OFFSET -2.327586 -1e-06 0.0
                          CHANNELS 3 Zrotation Yrotation Xrotation
                          JOINT RightHandIndexEnd
                          {
                            OFFSET -2.770001 3e-06 8e-06
                            CHANNELS 3 Zrotation Yrotation Xrotation
                          }
                        }
                      }
                    }
                  }
                  JOINT RightHandMiddle1
                  {
                    OFFSET -3.168223 -0.944764 0.411762
                    CHANNELS 3 Zrotation Yrotation Xrotation
                    JOINT RightHandMiddle2
                    {
                      OFFSET -6.266691 -1e-06 -4e-06
                      CHANNELS 3 Zrotation Yrotation Xrotation
                      JOINT RightHandMiddle3
                      {
                        OFFSET -4.348901 0.0 0.0
                        CHANNELS 3 Zrotation Yrotation Xrotation
                        JOINT RightHandMiddle4
                        {
                          OFFSET -3.00024 2e-06 -4e-06
                          CHANNELS 3 Zrotation Yrotation Xrotation
                          JOINT RightHandMiddleEnd
                          {
                            OFFSET -2.321477 -4e-06 -4e-06
                            CHANNELS 3 Zrotation Yrotation Xrotation
                          }
                        }
                      }
                    }
                  }
                  JOINT RightHandRing1
                  {
                    OFFSET -2.885654 0.293261 -0.119232
                    CHANNELS 3 Zrotation Yrotation Xrotation
                    JOINT RightHandRing2
                    {
                      OFFSET -6.032835 -1e-06 -4e-06
                      CHANNELS 3 Zrotation Yrotation Xrotation
                      JOINT RightHandRing3
                      {
                        OFFSET -4.33881 0.0 -4e-06
                        CHANNELS 3 Zrotation Yrotation Xrotation
                        JOINT RightHandRing4
                        {
                          OFFSET -2.654903 -4e-06 -4e-06
                          CHANNELS 3 Zrotation Yrotation Xrotation
                          JOINT RightHandRingEnd
                          {
                            OFFSET -1.935122 0.0 4e-06
                            CHANNELS 3 Zrotation Yrotation Xrotation
                          }
                        }
                      }
                    }
                  }
                  JOINT RightHandPinky1
                  {
                    OFFSET -2.866241 1.503904 -0.60527
                    CHANNELS 3 Zrotation Yrotation Xrotation
                    JOINT RightHandPinky2
                    {
                      OFFSET -5.553177 -2e-06 0.0
                      CHANNELS 3 Zrotation Yrotation Xrotation
                      JOINT RightHandPinky3
                      {
                        OFFSET -3.062664 -1e-06 -4e-06
                        CHANNELS 3 Zrotation Yrotation Xrotation
                        JOINT RightHandPinky4
                        {
                          OFFSET -1.546529 2e-06 4e-06
                          CHANNELS 3 Zrotation Yrotation Xrotation
                          JOINT RightHandPinkyEnd
                          {
                            OFFSET -1.952341 0.0 -4e-06
                            CHANNELS 3 Zrotation Yrotation Xrotation
                          }
                        }
                      }
                    }
                  }
                }
              }
            }
          }
        }
      }
    }
    JOINT LeftLeg
    {
      OFFSET -8.443107 2.567604 10.043214
      CHANNELS 3 Zrotation Yrotation Xrotation
      JOINT LeftShin
      {
        OFFSET 43.229198 1e-06 -1e-06
        CHANNELS 3 Zrotation Yrotation Xrotation
        JOINT LeftFoot
        {
          OFFSET 42.298611 1e-06 1e-06
          CHANNELS 3 Zrotation Yrotation Xrotation
          JOINT LeftToeBase
          {
            OFFSET 14.165858 1e-06 0.0
            CHANNELS 3 Zrotation Yrotation Xrotation
            JOINT LeftToeEnd
            {
              OFFSET 6.7141 -0.234461 0.0
              CHANNELS 3 Zrotation Yrotation Xrotation
            }
          }
        }
      }
    }
    JOINT RightLeg
    {
      OFFSET -8.303923 2.592729 -10.047278
      CHANNELS 3 Zrotation Yrotation Xrotation
      JOINT RightShin
      {
        OFFSET -43.369682 0.0 1e-06
        CHANNELS 3 Zrotation Yrotation Xrotation
        JOINT RightFoot
        {
          OFFSET -42.260784 4e-06 2e-06
          CHANNELS 3 Zrotation Yrotation Xrotation
          JOINT RightToeBase
          {
            OFFSET -14.222245 -2e-06 -1e-06
            CHANNELS 3 Zrotation Yrotation Xrotation
            JOINT RightToeEnd
            {
              OFFSET -6.660062 0.232574 -2e-06
              CHANNELS 3 Zrotation Yrotation Xrotation
            }
          }
        }
      }
    }
  }
}
MOTION
Frames: 4
Frame Time: 0.03333333333333333
0.0 0.0 0.0 0.0 -0.0 0.0 1.767103 7.1913 117.280891 -0.983786 -79.150284 -164.209137 -5.309925 -1.965538 -0.916897 -12.46305 -1.624997 -2.331818 16.669336 1.040915 -3.501898 50.163738 2.146057 3.735419 -2.234159 0.163118 2.188321 -17.235516 4.818988 3.109078 2e-06 -0.0 -0.0 -0.285023 0.307431 0.121841 -0.290891 0.771667 0.101695 -0.45546 -0.132641 0.122101 -35.297657 -75.881767 36.909134 34.891701 -45.844967 -55.377197 153.718491 1.402607 0.055078 -10.185895 13.980728 42.195183 17.636635 -26.322733 52.411194 -19.466665 -14.395598 29.410395 -1e-06 -8.774822 -2e-06 16.335361 -17.183964 5.957549 -0.609776 -1.795654 -3.889328 -4.807089 -11.046813 -2.93785 7e-06 -20.976021 -1e-06 -5.019969 -25.033564 -4.031881 6e-06 0.0 1e-06 -10.634536 -5.68697 -3.565588 10.573277 -17.922956 -3.113901 5e-06 -13.82121 1e-06 -0.501773 -31.181511 -4.027017 -11.423943 -59.026707 7.702892 -13.982716 -7.150198 -2.875042 13.772733 -8.401496 -3.218242 0.347737 -34.211555 0.771655 -0.963027 -17.733376 2.621021 0.0 -0.0 0.0 -17.346422 -20.095221 -4.201784 21.757561 -1.638375 3.866429 2e-06 -6.338825 0.0 -1.697588 -22.591747 -6.194007 -0.0 -4e-06 -2e-06 120.256439 -72.045456 76.468834 31.337137 -67.571342 -55.721359 159.413834 1.645498 -0.525882 -15.756033 40.520412 55.124699 22.182119 -20.375902 49.933327 -16.701818 -16.743536 28.476538 -3e-06 -12.690609 -1e-06 18.035704 -17.285601 1.850614 -0.105919 -1.513856 -4.275882 -5.039043 -5.612874 -2.953557 4e-06 -11.020528 -1e-06 -6.111303 -15.895338 -3.840472 1e-06 -1e-06 0.0 -10.283374 -5.68029 -4.341838 11.028297 -11.302409 -2.372634 -1.384272 -14.238583 -6.320123 -0.625438 -26.924194 -3.827603 -4.328058 -51.315746 -4.169786 -13.708529 -7.363478 -3.720938 18.141157 -14.05274 -3.242676 4e-06 -18.787271 -2e-06 -0.429712 -8.456047 2.555504 -0.0 -2e-06 0.0 -15.923539 -20.09449 -5.473584 30.419224 -7.190828 1.735925 2e-06 -8.162922 -0.0 -1.861906 -22.861481 -6.167943 -0.0 -3e-06 -2e-06 162.56015 -28.511063 -76.184586 27.500057 -23.998117 52.402245 -49.664181 34.319561 38.17807 -14.415244 1.039794 1.564794 -1.0 -0.0 1e-06 1.412631 -3.727002 98.578285 9.505709 10.539894 -59.627499 -53.309826 1.888225 -18.658131 -18.32653 0.482951 1.029822 -1.000001 -0.0 0.0 
0.0 0.0 0.0 0.0 -0.0 0.0 1.797517 7.205576 117.240334 -1.007652 -79.125069 -164.162125 -5.2799 -1.912415 -0.951481 -12.465592 -1.608005 -2.390404 16.65234 1.060336 -3.55422 50.175972 2.27696 3.768804 -2.20304 0.206049 2.10012 -17.332123 4.782757 3.100503 7e-06 0.0 -0.0 -0.289947 0.288946 0.112443 -0.300698 0.734089 0.093444 -0.471108 -0.131436 0.11252 -34.942276 -75.786224 36.549049 34.64323 -45.823788 -55.396648 153.802643 1.493496 0.002439 -10.118027 14.029527 42.381084 17.636625 -26.322737 52.411213 -19.466661 -14.395598 29.410395 -2e-06 -8.774822 -2e-06 16.290325 -17.17293 5.980873 -0.609776 -1.795654 -3.889329 -4.807089 -11.046811 -2.93785 5e-06 -20.976019 -1e-06 -5.019969 -25.033562 -4.031882 6e-06 -0.0 -0.0 -10.634533 -5.686972 -3.565589 10.573275 -17.922951 -3.113902 3e-06 -13.821206 1e-06 -0.501776 -31.181501 -4.027017 -11.363539 -59.061058 7.657666 -13.982713 -7.150198 -2.875043 13.772729 -8.401491 -3.218242 0.347734 -34.211555 0.771653 -0.963028 -17.73337 2.62102 -0.0 0.0 0.0 -17.346416 -20.095217 -4.201785 21.757559 -1.638375 3.866429 1e-06 -6.338826 0.0 -1.697588 -22.591745 -6.194008 -0.0 -6e-06 -2e-06 120.915291 -71.813034 75.874084 31.969702 -67.49498 -56.362396 159.372467 1.674825 -0.501954 -16.065182 40.441856 55.124023 22.182106 -20.375887 49.933308 -16.701805 -16.743525 28.476522 -3e-06 -12.690597 -2e-06 18.14954 -17.29929 1.779374 -0.10592 -1.513856 -4.27588 -5.039038 -5.612868 -2.953556 4e-06 -11.020519 -2e-06 -6.111297 -15.895324 -3.84047 1e-06 -1e-06 -0.0 -10.283369 -5.680285 -4.341838 11.028292 -11.302401 -2.372633 -1.384269 -14.238577 -6.32012 -0.625435 -26.924183 -3.827603 -4.286583 -51.395969 -4.236824 -13.708519 -7.363473 -3.720938 18.141144 -14.052735 -3.242674 6e-06 -18.787262 -3e-06 -0.429711 -8.456041 2.555503 0.0 -2e-06 0.0 -15.92353 -20.094477 -5.473584 30.419205 -7.190826 1.735925 3e-06 -8.162922 -1e-06 -1.861901 -22.861469 -6.167939 0.0 -3e-06 -1e-06 162.360428 -28.58074 -76.145988 27.564352 -24.254942 52.650082 -49.857422 34.265118 38.20253 -14.521024 1.044727 1.546059 -0.999999 -1e-06 -0.0 1.259373 -3.650052 98.465225 9.682612 10.771744 -59.399979 -53.381313 2.059819 -18.747383 -18.093294 0.488877 1.031173 -1.000001 1e-06 1e-06 
0.0 0.0 0.0 0.0 -0.0 0.0 1.798095 7.222331 117.209114 -1.027094 -79.101059 -164.121811 -5.282965 -1.862364 -0.985352 -12.470569 -1.607983 -2.454871 16.67486 1.054411 -3.58999 50.219994 2.377489 3.803927 -2.177882 0.270523 2.00391 -17.443436 4.775192 3.024756 6e-06 -0.0 0.0 -0.29359 0.272738 0.105589 -0.30377 0.704078 0.086542 -0.479246 -0.133087 0.106797 -34.578003 -75.651573 36.142021 34.467655 -45.778618 -55.323845 153.843262 1.556498 -0.011101 -10.039779 14.062707 42.576496 17.636625 -26.322725 52.411182 -19.466652 -14.395598 29.410381 -2e-06 -8.774821 -2e-06 16.270765 -17.1623 5.971406 -0.609776 -1.795653 -3.889327 -4.807087 -11.046806 -2.93785 5e-06 -20.976006 1e-06 -5.019969 -25.033546 -4.031878 6e-06 -1e-06 0.0 -10.634531 -5.686967 -3.565588 10.573271 -17.922945 -3.113898 3e-06 -13.821204 2e-06 -0.501779 -31.181494 -4.027012 -11.316653 -59.079395 7.600924 -13.982711 -7.150194 -2.875041 13.772727 -8.401489 -3.218241 0.347733 -34.211536 0.771658 -0.963029 -17.733366 2.621021 -1e-06 0.0 0.0 -17.346413 -20.095209 -4.201781 21.757555 -1.638376 3.866426 1e-06 -6.33882 1e-06 -1.697589 -22.591734 -6.194003 -1e-06 -7e-06 -2e-06 121.426971 -71.597694 75.457619 32.630711 -67.392586 -56.94928 159.247864 1.738736 -0.484255 -16.193344 40.371986 55.290314 22.182108 -20.375889 49.933311 -16.701809 -16.743525 28.476526 -4e-06 -12.6906 -3e-06 18.287708 -17.32202 1.727648 -0.10592 -1.513855 -4.275882 -5.039041 -5.612873 -2.953556 4e-06 -11.020523 -3e-06 -6.1113 -15.89533 -3.840472 -0.0 1e-06 -1e-06 -10.283369 -5.680288 -4.341838 11.028292 -11.302405 -2.372633 -1.384269 -14.238577 -6.320122 -0.625435 -26.924179 -3.827606 -4.300653 -51.517506 -4.258529 -13.708524 -7.363477 -3.72094 18.141148 -14.052739 -3.242674 6e-06 -18.787266 -3e-06 -0.429712 -8.456045 2.555503 1e-06 -2e-06 1e-06 -15.923536 -20.094482 -5.473584 30.419207 -7.190827 1.735926 2e-06 -8.162921 -1e-06 -1.861901 -22.861469 -6.167943 -0.0 -3e-06 -1e-06 162.219223 -28.545477 -76.014992 27.653048 -24.403605 52.739796 -49.952019 34.047699 38.26123 -14.568452 1.056815 1.535686 -0.999999 -0.0 -0.0 1.111884 -3.541696 98.416145 9.868486 11.010661 -59.269573 -53.489044 2.205669 -18.813808 -17.910681 0.499664 1.038862 -1.000001 1e-06 -0.0 
0.0 0.0 0.0 0.0 -0.0 0.0 1.765241 7.219773 117.172882 -1.03469 -79.087036 -164.09053 -5.30809 -1.846891 -1.013451 -12.479163 -1.614199 -2.523038 16.724646 1.023194 -3.632015 50.291218 2.458216 3.861032 -2.159199 0.322222 1.915423 -17.550684 4.766585 2.884733 7e-06 0.0 -0.0 -0.294108 0.258426 0.100977 -0.291833 0.684654 0.079465 -0.475314 -0.14132 0.105767 -34.183464 -75.495567 35.650925 34.336941 -45.695759 -55.205006 153.827225 1.595474 0.002545 -9.993447 14.078587 42.634453 17.636627 -26.322737 52.411198 -19.46666 -14.395598 29.410395 -1e-06 -8.774821 -1e-06 16.2733 -17.147274 5.924501 -0.609776 -1.795653 -3.889328 -4.807088 -11.046811 -2.93785 2e-06 -20.976015 1e-06 -5.019973 -25.033556 -4.031879 7e-06 -0.0 0.0 -10.634532 -5.686969 -3.565588 10.573271 -17.922947 -3.113899 1e-06 -13.821208 2e-06 -0.501781 -31.181505 -4.027014 -11.272976 -59.060947 7.522202 -13.982712 -7.150198 -2.875042 13.772727 -8.401489 -3.218241 0.34773 -34.211544 0.771657 -0.96303 -17.733366 2.621019 -0.0 0.0 0.0 -17.346416 -20.095217 -4.20178 21.757555 -1.638373 3.866426 0.0 -6.338821 2e-06 -1.697592 -22.591745 -6.194005 -1e-06 -5e-06 -2e-06 121.730873 -71.417664 75.249207 33.252754 -67.263618 -57.38546 159.039917 1.814886 -0.466605 -16.150469 40.351814 55.521793 22.18211 -20.3759 49.933319 -16.701815 -16.743528 28.476532 -4e-06 -12.690602 -0.0 18.389868 -17.336891 1.703761 -0.105919 -1.513857 -4.275882 -5.039039 -5.612872 -2.953556 3e-06 -11.020527 -2e-06 -6.1113 -15.895334 -3.84047 -0.0 -1e-06 1e-06 -10.283369 -5.68029 -4.341838 11.028296 -11.302407 -2.372634 -1.384269 -14.238586 -6.320121 -0.62544 -26.924194 -3.8276 -4.344977 -51.648663 -4.236785 -13.708522 -7.363478 -3.720938 18.14115 -14.052742 -3.242676 5e-06 -18.78727 -2e-06 -0.429713 -8.456047 2.555503 1e-06 -0.0 1e-06 -15.923532 -20.094486 -5.473583 30.41921 -7.190824 1.735923 2e-06 -8.162925 -1e-06 -1.861904 -22.861479 -6.167942 0.0 -2e-06 -0.0 162.094391 -28.500544 -75.826714 27.758934 -24.523241 52.704594 -50.020367 33.818352 38.227543 -14.561873 1.070872 1.528595 -0.999998 0.0 -0.0 0.913676 -3.360652 98.389999 10.162913 11.381927 -59.135094 -53.643513 2.394924 -18.864952 -17.725662 0.509327 1.043267 -1.000004 -1e-06 1e-06 
